<mxfile host="app.diagrams.net" modified="2022-04-27T12:50:27.174Z" agent="5.0 (Macintosh; Intel Mac OS X 10_15_7) AppleWebKit/537.36 (KHTML, like Gecko) Chrome/89.0.4389.90 Safari/537.36" etag="Z7ljdIPdSu04VSye5wkq" version="17.4.6" type="github">
  <diagram id="eL4BzawONwMXdwajap6b" name="Page-1">
    <mxGraphModel dx="1141" dy="1154" grid="1" gridSize="10" guides="1" tooltips="1" connect="1" arrows="1" fold="1" page="1" pageScale="1" pageWidth="827" pageHeight="1169" math="0" shadow="0">
      <root>
        <mxCell id="0" />
        <mxCell id="1" parent="0" />
        <mxCell id="LMngpZU32BugCkhdftWq-30" value="" style="edgeStyle=orthogonalEdgeStyle;rounded=0;orthogonalLoop=1;jettySize=auto;html=1;" parent="1" source="LMngpZU32BugCkhdftWq-1" target="LMngpZU32BugCkhdftWq-10" edge="1">
          <mxGeometry relative="1" as="geometry" />
        </mxCell>
        <mxCell id="LMngpZU32BugCkhdftWq-1" value="&lt;h3&gt;가상머신 샌드박스 상의 스마트 컨트랙트&lt;/h3&gt;&lt;div&gt;API ----&amp;gt; 스마트 컨트랙트&lt;/div&gt;" style="rounded=0;whiteSpace=wrap;html=1;" parent="1" vertex="1">
          <mxGeometry x="80" y="280" width="300" height="90" as="geometry" />
        </mxCell>
        <mxCell id="LMngpZU32BugCkhdftWq-7" style="edgeStyle=orthogonalEdgeStyle;rounded=0;orthogonalLoop=1;jettySize=auto;html=1;exitX=0.5;exitY=1;exitDx=0;exitDy=0;" parent="1" source="LMngpZU32BugCkhdftWq-1" target="LMngpZU32BugCkhdftWq-1" edge="1">
          <mxGeometry relative="1" as="geometry" />
        </mxCell>
        <mxCell id="LMngpZU32BugCkhdftWq-8" value="&lt;h3&gt;탈중앙화 애플리케이션 인터페이스: 웹 브라우저&lt;/h3&gt;&lt;div&gt;유저 인터페이스 ----&amp;gt; API&lt;/div&gt;" style="rounded=0;whiteSpace=wrap;html=1;" parent="1" vertex="1">
          <mxGeometry x="80" y="110" width="300" height="90" as="geometry" />
        </mxCell>
        <mxCell id="LMngpZU32BugCkhdftWq-9" value="&lt;h3 style=&quot;color: rgb(0 , 0 , 0) ; font-family: &amp;#34;helvetica&amp;#34; ; font-style: normal ; letter-spacing: normal ; text-align: center ; text-indent: 0px ; text-transform: none ; word-spacing: 0px ; background-color: rgb(248 , 249 , 250)&quot;&gt;컴퓨터 시스템 하드웨어&lt;/h3&gt;" style="rounded=0;whiteSpace=wrap;html=1;" parent="1" vertex="1">
          <mxGeometry x="80" y="520" width="300" height="90" as="geometry" />
        </mxCell>
        <mxCell id="LMngpZU32BugCkhdftWq-31" value="" style="edgeStyle=orthogonalEdgeStyle;rounded=0;orthogonalLoop=1;jettySize=auto;html=1;" parent="1" source="LMngpZU32BugCkhdftWq-10" target="LMngpZU32BugCkhdftWq-9" edge="1">
          <mxGeometry relative="1" as="geometry" />
        </mxCell>
        <mxCell id="LMngpZU32BugCkhdftWq-10" value="&lt;h3&gt;블록체인 프로토콜 구현&amp;nbsp;&lt;/h3&gt;&lt;div&gt;어카운트&lt;/div&gt;" style="rounded=0;whiteSpace=wrap;html=1;" parent="1" vertex="1">
          <mxGeometry x="80" y="400" width="300" height="90" as="geometry" />
        </mxCell>
        <mxCell id="LMngpZU32BugCkhdftWq-16" value="포트" style="shape=link;html=1;rounded=0;width=32;" parent="1" source="LMngpZU32BugCkhdftWq-9" edge="1">
          <mxGeometry width="100" relative="1" as="geometry">
            <mxPoint x="360" y="450" as="sourcePoint" />
            <mxPoint x="250" y="700" as="targetPoint" />
          </mxGeometry>
        </mxCell>
        <mxCell id="LMngpZU32BugCkhdftWq-17" value="&lt;h3 style=&quot;font-family: &amp;#34;helvetica&amp;#34;&quot;&gt;블록체인 네트워크&lt;/h3&gt;" style="rounded=0;whiteSpace=wrap;html=1;" parent="1" vertex="1">
          <mxGeometry x="80" y="700" width="720" height="60" as="geometry" />
        </mxCell>
        <mxCell id="LMngpZU32BugCkhdftWq-29" value="" style="edgeStyle=orthogonalEdgeStyle;rounded=0;orthogonalLoop=1;jettySize=auto;html=1;" parent="1" source="LMngpZU32BugCkhdftWq-18" target="LMngpZU32BugCkhdftWq-21" edge="1">
          <mxGeometry relative="1" as="geometry" />
        </mxCell>
        <mxCell id="LMngpZU32BugCkhdftWq-18" value="&lt;h3&gt;가상머신 샌드박스 상의 스마트 컨트랙트&lt;/h3&gt;&lt;div&gt;API ----&amp;gt; 스마트 컨트랙트&lt;/div&gt;" style="rounded=0;whiteSpace=wrap;html=1;" parent="1" vertex="1">
          <mxGeometry x="480" y="280" width="300" height="90" as="geometry" />
        </mxCell>
        <mxCell id="LMngpZU32BugCkhdftWq-36" value="" style="edgeStyle=orthogonalEdgeStyle;rounded=0;orthogonalLoop=1;jettySize=auto;html=1;" parent="1" source="LMngpZU32BugCkhdftWq-19" target="LMngpZU32BugCkhdftWq-18" edge="1">
          <mxGeometry relative="1" as="geometry" />
        </mxCell>
        <mxCell id="LMngpZU32BugCkhdftWq-19" value="&lt;h3&gt;탈중앙화 애플리케이션 인터페이스: 웹 브라우저&lt;/h3&gt;&lt;div&gt;유저 인터페이스 ----&amp;gt; API&lt;/div&gt;&lt;div&gt;&lt;span style=&quot;color: rgba(0 , 0 , 0 , 0) ; font-family: monospace ; font-size: 0px&quot;&gt;%3CmxGraphModel%3E%3Croot%3E%3CmxCell%20id%3D%220%22%2F%3E%3CmxCell%20id%3D%221%22%20parent%3D%220%22%2F%3E%3CmxCell%20id%3D%222%22%20value%3D%22%26lt%3Bh3%26gt%3B%ED%83%88%EC%A4%91%EC%95%99%ED%99%94%20%EC%95%A0%ED%94%8C%EB%A6%AC%EC%BC%80%EC%9D%B4%EC%85%98%20%EC%9D%B8%ED%84%B0%ED%8E%98%EC%9D%B4%EC%8A%A4%3A%20%EC%9B%B9%20%EB%B8%8C%EB%9D%BC%EC%9A%B0%EC%A0%80%26lt%3B%2Fh3%26gt%3B%26lt%3Bdiv%26gt%3B%EC%9C%A0%EC%A0%80%20%EC%9D%B8%ED%84%B0%ED%8E%98%EC%9D%B4%EC%8A%A4%20----%26amp%3Bgt%3B%20API%26lt%3B%2Fdiv%26gt%3B%22%20style%3D%22rounded%3D0%3BwhiteSpace%3Dwrap%3Bhtml%3D1%3B%22%20vertex%3D%221%22%20parent%3D%221%22%3E%3CmxGeometry%20x%3D%2280%22%20y%3D%22110%22%20width%3D%22300%22%20height%3D%2290%22%20as%3D%22geometry%22%2F%3E%3C%2FmxCell%3E%3C%2Froot%3E%3C%2FmxGraphModel%3Eㅇㅇ&lt;/span&gt;&lt;br&gt;&lt;/div&gt;" style="rounded=0;whiteSpace=wrap;html=1;" parent="1" vertex="1">
          <mxGeometry x="480" y="110" width="300" height="90" as="geometry" />
        </mxCell>
        <mxCell id="LMngpZU32BugCkhdftWq-20" value="&lt;h3 style=&quot;color: rgb(0 , 0 , 0) ; font-family: &amp;#34;helvetica&amp;#34; ; font-style: normal ; letter-spacing: normal ; text-align: center ; text-indent: 0px ; text-transform: none ; word-spacing: 0px ; background-color: rgb(248 , 249 , 250)&quot;&gt;컴퓨터 시스템 하드웨어&lt;/h3&gt;" style="rounded=0;whiteSpace=wrap;html=1;" parent="1" vertex="1">
          <mxGeometry x="480" y="520" width="300" height="90" as="geometry" />
        </mxCell>
        <mxCell id="LMngpZU32BugCkhdftWq-28" value="" style="edgeStyle=orthogonalEdgeStyle;rounded=0;orthogonalLoop=1;jettySize=auto;html=1;" parent="1" source="LMngpZU32BugCkhdftWq-21" target="LMngpZU32BugCkhdftWq-20" edge="1">
          <mxGeometry relative="1" as="geometry" />
        </mxCell>
        <mxCell id="LMngpZU32BugCkhdftWq-21" value="&lt;h3&gt;블록체인 프로토콜 구현&amp;nbsp;&lt;/h3&gt;&lt;div&gt;어카운트&lt;/div&gt;" style="rounded=0;whiteSpace=wrap;html=1;" parent="1" vertex="1">
          <mxGeometry x="480" y="400" width="300" height="90" as="geometry" />
        </mxCell>
        <mxCell id="LMngpZU32BugCkhdftWq-23" value="RPC 포트" style="shape=link;html=1;rounded=0;width=118;" parent="1" source="LMngpZU32BugCkhdftWq-8" target="LMngpZU32BugCkhdftWq-1" edge="1">
          <mxGeometry width="100" relative="1" as="geometry">
            <mxPoint x="309.9966666666667" y="230" as="sourcePoint" />
            <mxPoint x="323.33" y="320" as="targetPoint" />
            <Array as="points">
              <mxPoint x="230" y="240" />
            </Array>
          </mxGeometry>
        </mxCell>
        <mxCell id="LMngpZU32BugCkhdftWq-25" value="RPC 포트" style="shape=link;html=1;rounded=0;width=118;" parent="1" edge="1">
          <mxGeometry width="100" relative="1" as="geometry">
            <mxPoint x="629.5" y="200" as="sourcePoint" />
            <mxPoint x="629.5" y="280" as="targetPoint" />
            <Array as="points">
              <mxPoint x="629.5" y="240" />
            </Array>
          </mxGeometry>
        </mxCell>
        <mxCell id="LMngpZU32BugCkhdftWq-26" value="포트" style="shape=link;html=1;rounded=0;width=32;entryX=0.75;entryY=0;entryDx=0;entryDy=0;" parent="1" source="LMngpZU32BugCkhdftWq-20" target="LMngpZU32BugCkhdftWq-17" edge="1">
          <mxGeometry width="100" relative="1" as="geometry">
            <mxPoint x="669.9966666666667" y="610" as="sourcePoint" />
            <mxPoint x="683.3299999999999" y="700" as="targetPoint" />
          </mxGeometry>
        </mxCell>
        <mxCell id="LMngpZU32BugCkhdftWq-32" value="" style="shape=actor;whiteSpace=wrap;html=1;" parent="1" vertex="1">
          <mxGeometry x="80" y="20" width="40" height="60" as="geometry" />
        </mxCell>
        <mxCell id="LMngpZU32BugCkhdftWq-33" value="" style="shape=actor;whiteSpace=wrap;html=1;" parent="1" vertex="1">
          <mxGeometry x="480" y="20" width="40" height="60" as="geometry" />
        </mxCell>
        <mxCell id="LMngpZU32BugCkhdftWq-34" value="행위자" style="text;html=1;strokeColor=none;fillColor=none;align=center;verticalAlign=middle;whiteSpace=wrap;rounded=0;" parent="1" vertex="1">
          <mxGeometry x="120" y="50" width="60" height="30" as="geometry" />
        </mxCell>
        <mxCell id="LMngpZU32BugCkhdftWq-35" value="행위자" style="text;html=1;strokeColor=none;fillColor=none;align=center;verticalAlign=middle;whiteSpace=wrap;rounded=0;" parent="1" vertex="1">
          <mxGeometry x="520" y="50" width="60" height="30" as="geometry" />
        </mxCell>
      </root>
    </mxGraphModel>
  </diagram>
</mxfile>
